<?xml version="1.0" encoding="iso-8859-1"?>
<svg version="1.1" id="Capa_1" xmlns="http://www.w3.org/2000/svg" xmlns:xlink="http://www.w3.org/1999/xlink" x="0px" y="0px"
	 viewBox="0 0 16.057 16.057" style="enable-background:new 0 0 16.057 16.057;" xml:space="preserve">
<g>
	<path style="fill:#030104;" d="M9.194,8.744c0.461,0,0.835,0.374,0.835,0.835s-0.374,0.835-0.835,0.835S8.359,10.04,8.359,9.579
		C8.359,9.118,8.733,8.744,9.194,8.744z M6.807,8.315c-0.449,0-0.813,0.364-0.813,0.813s0.364,0.813,0.813,0.813
		c0.449,0,0.813-0.364,0.813-0.813S7.256,8.315,6.807,8.315z M9.098,7.695c0-0.329-0.267-0.596-0.596-0.596S7.906,7.366,7.906,7.695
		c0,0.329,0.267,0.596,0.596,0.596S9.098,8.024,9.098,7.695z M13.771,16.057H2.285c-1.616,0-2.173-1.38-1.667-2.882
		c0,0,1.991-3.712,5.237-9.04V1.05h-0.2C5.364,1.051,5.128,0.815,5.128,0.526C5.129,0.237,5.364,0.001,5.655,0l4.75,0.001
		C10.694,0,10.93,0.236,10.93,0.526c0,0.289-0.236,0.524-0.525,0.524h-0.201v3.086c3.246,5.328,5.236,9.028,5.236,9.028
		C15.945,14.666,15.389,16.057,13.771,16.057z M12.919,10.981c-0.527-0.954-2.886-5.041-3.648-6.289l-0.127-0.21H6.913l-0.127,0.21
		c-0.828,1.36-3.32,5.714-3.658,6.289H12.919z"/>
</g>
<g>
</g>
<g>
</g>
<g>
</g>
<g>
</g>
<g>
</g>
<g>
</g>
<g>
</g>
<g>
</g>
<g>
</g>
<g>
</g>
<g>
</g>
<g>
</g>
<g>
</g>
<g>
</g>
<g>
</g>
</svg>
