<?xml version="1.0" encoding="iso-8859-1"?>
<!-- Generator: Adobe Illustrator 19.0.0, SVG Export Plug-In . SVG Version: 6.00 Build 0)  -->
<svg version="1.1" id="Layer_1" xmlns="http://www.w3.org/2000/svg" xmlns:xlink="http://www.w3.org/1999/xlink" x="0px" y="0px"
	 viewBox="0 0 512 512" style="enable-background:new 0 0 512 512;" xml:space="preserve">
<g>
	<path style="fill:#507C5C;" d="M233.712,329.351c-74.955,0-135.936-60.981-135.936-135.936V97.932
		c0-7.774,6.303-14.077,14.077-14.077s14.077,6.302,14.077,14.077v95.484c0,59.433,48.351,107.783,107.783,107.783
		s107.783-48.351,107.783-107.783v-24.804c0-7.774,6.303-14.077,14.077-14.077c7.773,0,14.077,6.302,14.077,14.077v24.804
		C369.648,268.37,308.667,329.351,233.712,329.351z"/>
	<path style="fill:#507C5C;" d="M380.007,112.008H87.416c-7.773,0-14.077-6.302-14.077-14.077s6.303-14.077,14.077-14.077h292.589
		c7.773,0,14.077,6.302,14.077,14.077S387.78,112.008,380.007,112.008z"/>
</g>
<path style="fill:#CFF09E;" d="M189.431,97.932h-49.662V38.908c0-13.713,11.118-24.831,24.831-24.831l0,0
	c13.713,0,24.831,11.118,24.831,24.831V97.932z"/>
<path style="fill:#507C5C;" d="M189.431,112.008h-49.662c-7.773,0-14.077-6.302-14.077-14.077V38.908
	C125.693,17.453,143.146,0,164.6,0c21.453,0,38.908,17.453,38.908,38.908v59.024C203.508,105.706,197.204,112.008,189.431,112.008z
	 M153.846,83.855h21.509V38.908c0-5.93-4.824-10.754-10.754-10.754s-10.756,4.824-10.756,10.754v44.948H153.846z"/>
<path style="fill:#CFF09E;" d="M327.653,97.932h-49.662V38.908c0-13.713,11.118-24.831,24.831-24.831l0,0
	c13.713,0,24.831,11.118,24.831,24.831V97.932z"/>
<path style="fill:#507C5C;" d="M327.653,112.008h-49.661c-7.773,0-14.077-6.302-14.077-14.077V38.908
	C263.916,17.453,281.369,0,302.823,0s38.908,17.453,38.908,38.908v59.024C341.73,105.706,335.428,112.008,327.653,112.008z
	 M292.069,83.855h21.508V38.908c0-5.93-4.824-10.754-10.754-10.754c-5.93,0-10.754,4.824-10.754,10.754v44.948H292.069z"/>
<rect x="180.912" y="301.702" style="fill:#CFF09E;" width="105.602" height="61.503"/>
<g>
	<path style="fill:#507C5C;" d="M286.509,377.285H180.914c-7.773,0-14.077-6.302-14.077-14.077v-61.502
		c0-7.774,6.303-14.077,14.077-14.077h105.595c7.773,0,14.077,6.302,14.077,14.077v61.502
		C300.585,370.983,294.282,377.285,286.509,377.285z M194.99,349.132h77.442v-33.349H194.99V349.132z"/>
	<path style="fill:#507C5C;" d="M281.43,512c-34.074,0-61.795-27.721-61.795-61.795V363.21c0-7.774,6.303-14.077,14.077-14.077
		c7.773,0,14.077,6.302,14.077,14.077v86.996c0,18.55,15.091,33.641,33.64,33.641s33.642-15.091,33.642-33.641v-10.267
		c0-7.775,6.303-14.077,14.077-14.077c7.773,0,14.077,6.302,14.077,14.077v10.267C343.225,484.278,315.504,512,281.43,512z"/>
	<path style="fill:#507C5C;" d="M424.584,444.158c-7.773,0-14.077-6.302-14.077-14.077v-74.776c0-18.55-15.093-33.642-33.641-33.642
		s-33.642,15.091-33.642,33.642v17.413c0,7.774-6.303,14.077-14.077,14.077c-7.773,0-14.077-6.302-14.077-14.077v-17.413
		c0-34.074,27.721-61.795,61.795-61.795s61.795,27.721,61.795,61.795v74.776C438.661,437.856,432.359,444.158,424.584,444.158z"/>
	<path style="fill:#507C5C;" d="M286.509,166.614H111.851c-7.773,0-14.077-6.302-14.077-14.077c0-7.774,6.303-14.077,14.077-14.077
		h174.656c7.773,0,14.077,6.302,14.077,14.077C300.584,160.312,294.282,166.614,286.509,166.614z"/>
</g>
<g>
</g>
<g>
</g>
<g>
</g>
<g>
</g>
<g>
</g>
<g>
</g>
<g>
</g>
<g>
</g>
<g>
</g>
<g>
</g>
<g>
</g>
<g>
</g>
<g>
</g>
<g>
</g>
<g>
</g>
</svg>
